# File created by Blade
# Date/Time:  Tue Jan 27 18:01:49 2015
# Frame Rate: 120.000 fps
#------------------------------------------------------
:FULLY-SPECIFIED
:DEGREES
2353
root -1.622125 31.948319 -5.926180 8.080065 24.476955 5.098452
Spine -6.722878 -8.718459 -5.285233
Head -1.513431 -27.139055 -1.095649
LeftShoulder -9.861664 13.935600 8.960970
LeftArm 24.775556 42.053679 -70.487114
LeftForeArm -2.861341 -0.000000 11.296838
LeftHand -11.376031 -0.000000 -8.195944
LeftHandThumb1 -26.253704 0.000000 33.147579
RightShoulder -8.938181 30.206518 -45.399658
RightArm 97.244136 68.466613 125.412435
RightForeArm 45.613127 -0.000000 100.450336
RightHand 0.637081 0.000000 12.420413
RightHandThumb1 -24.326973 -0.000000 -32.862282
LeftUpLeg -3.743739 -10.163848 -0.054233
LeftLeg 0.200602 -0.000000 -0.000000
LeftFoot -12.103573 10.178562 -24.168928
LeftToeBase 8.759523 -0.000000 -0.000000
RightUpLeg 3.687349 -13.706146 -2.803787
RightLeg -3.572391 -0.000000 0.000000
RightFoot -17.761110 -20.733283 11.940886
RightToeBase 5.366655 -0.000000 -0.000000
2354
root -1.626767 31.947974 -5.927435 8.083227 24.474566 5.093810
Spine -6.721218 -8.714732 -5.278026
Head -1.468680 -27.074562 -1.126852
LeftShoulder -9.864347 13.933951 8.955339
LeftArm 24.748743 42.100668 -70.522431
LeftForeArm -2.877719 -0.000000 11.312686
LeftHand -11.349095 0.000000 -8.117630
LeftHandThumb1 -26.253704 0.000000 33.147579
RightShoulder -8.946214 30.117245 -45.384730
RightArm 97.184818 68.456816 125.305358
RightForeArm 45.554872 0.000000 100.444699
RightHand 0.650124 0.000000 12.483867
RightHandThumb1 -24.326973 -0.000000 -32.862282
LeftUpLeg -3.756370 -10.165348 -0.036619
LeftLeg 0.196510 -0.000000 -0.000000
LeftFoot -12.080085 10.180001 -24.105770
LeftToeBase 8.760753 -0.000000 -0.000000
RightUpLeg 3.675018 -13.718228 -2.791274
RightLeg -3.572397 -0.000000 0.000000
RightFoot -17.750747 -20.717850 11.930950
RightToeBase 5.303564 -0.000000 -0.000000
2355
root -1.630990 31.947691 -5.927806 8.084804 24.464692 5.092596
Spine -6.724252 -8.711002 -5.273696
Head -1.421511 -27.009660 -1.160361
LeftShoulder -9.875765 13.947494 8.944860
LeftArm 24.736694 42.124321 -70.560703
LeftForeArm -2.883830 -0.000000 11.303498
LeftHand -11.335298 -0.000000 -8.139587
LeftHandThumb1 -26.253704 0.000000 33.147579
RightShoulder -8.928778 30.074446 -45.363726
RightArm 97.062799 68.487702 125.130933
RightForeArm 45.478772 -0.000000 100.458429
RightHand 0.612962 0.000000 12.440313
RightHandThumb1 -24.326973 -0.000000 -32.862282
LeftUpLeg -3.757854 -10.160470 -0.030389
LeftLeg 0.187197 -0.000000 -0.000000
LeftFoot -12.073440 10.195598 -24.094841
LeftToeBase 8.658844 -0.000000 -0.000000
RightUpLeg 3.671188 -13.725852 -2.784660
RightLeg -3.578183 -0.000000 0.000000
RightFoot -17.747762 -20.702046 11.909801
RightToeBase 5.355224 -0.000000 -0.000000
2356
root -1.635266 31.947505 -5.929133 8.092872 24.455622 5.089459
Spine -6.731653 -8.696042 -5.268043
Head -1.370832 -26.957619 -1.189469
LeftShoulder -9.876327 13.955961 8.940066
LeftArm 24.724729 42.151426 -70.603559
LeftForeArm -2.882980 0.000000 11.285847
LeftHand -11.363232 -0.000000 -8.386744
LeftHandThumb1 -26.253704 0.000000 33.147579
RightShoulder -8.929269 30.030602 -45.350032
RightArm 96.916885 68.520079 124.933632
RightForeArm 45.349400 -0.000000 100.479910
RightHand 0.549990 -0.000000 12.333225
RightHandThumb1 -24.326973 -0.000000 -32.862282
LeftUpLeg -3.774874 -10.151427 -0.021734
LeftLeg 0.196054 -0.000000 -0.000000
LeftFoot -12.086180 10.192682 -24.131105
LeftToeBase 8.637775 -0.000000 -0.000000
RightUpLeg 3.653980 -13.754609 -2.773752
RightLeg -3.578209 -0.000000 0.000000
RightFoot -17.744158 -20.669967 11.897056
RightToeBase 5.350426 -0.000000 -0.000000
2357
root -1.640580 31.947292 -5.930313 8.097816 24.447120 5.085308
Spine -6.729269 -8.691590 -5.266677
Head -1.341422 -26.919559 -1.204084
LeftShoulder -9.892364 13.956928 8.936621
LeftArm 24.716294 42.197798 -70.635142
LeftForeArm -2.875636 -0.000000 11.276223
LeftHand -11.348773 -0.000000 -8.471173
LeftHandThumb1 -26.253704 0.000000 33.147579
RightShoulder -8.917648 30.021749 -45.330715
RightArm 96.746580 68.589732 124.711812
RightForeArm 45.203924 0.000000 100.497531
RightHand 0.554680 -0.000000 12.304423
RightHandThumb1 -24.326973 -0.000000 -32.862282
LeftUpLeg -3.810909 -10.056019 -0.019306
LeftLeg 0.245769 -0.000000 -0.000000
LeftFoot -12.068265 10.146115 -24.030741
LeftToeBase 8.652130 -0.000000 -0.000000
RightUpLeg 3.635402 -13.753855 -2.759238
RightLeg -3.570794 -0.000000 0.000000
RightFoot -17.736651 -20.666856 11.885012
RightToeBase 5.334868 -0.000000 -0.000000
2358
root -1.645201 31.947278 -5.931293 8.104557 24.432075 5.081707
Spine -6.732068 -8.669745 -5.263167
Head -1.312197 -26.882478 -1.221440
LeftShoulder -9.904612 13.959156 8.928933
LeftArm 24.711697 42.234302 -70.668216
LeftForeArm -2.853078 -0.000000 11.262523
LeftHand -11.347518 -0.000000 -8.404629
LeftHandThumb1 -26.253704 0.000000 33.147579
RightShoulder -8.917088 30.029606 -45.324997
RightArm 96.515137 68.669179 124.434926
RightForeArm 45.062425 -0.000000 100.526428
RightHand 0.593070 -0.000000 12.308743
RightHandThumb1 -24.326973 -0.000000 -32.862282
LeftUpLeg -3.822121 -10.063181 -0.007272
LeftLeg 0.244515 -0.000000 -0.000000
LeftFoot -12.075017 10.161197 -24.045722
LeftToeBase 8.671493 -0.000000 -0.000000
RightUpLeg 3.621722 -13.744800 -2.747338
RightLeg -3.576305 -0.000000 0.000000
RightFoot -17.733735 -20.666956 11.881159
RightToeBase 5.345931 -0.000000 -0.000000
2359
root -1.645693 31.946950 -5.929038 8.106375 24.403553 5.081704
Spine -6.754171 -8.649713 -5.250440
Head -1.231622 -26.828364 -1.278932
LeftShoulder -9.922334 13.990919 8.906141
LeftArm 24.706739 42.258468 -70.699009
LeftForeArm -2.835089 -0.000000 11.260156
LeftHand -11.285270 -0.000000 -8.164278
LeftHandThumb1 -26.253704 0.000000 33.147579
RightShoulder -8.875653 30.002118 -45.291939
RightArm 96.367416 68.706890 124.204436
RightForeArm 44.957972 -0.000000 100.559346
RightHand 0.562803 0.000000 12.205508
RightHandThumb1 -24.326973 -0.000000 -32.862282
LeftUpLeg -3.806256 -10.084430 -0.008073
LeftLeg 0.221817 -0.000000 -0.000000
LeftFoot -12.092965 10.216498 -24.057783
LeftToeBase 8.650732 -0.000000 -0.000000
RightUpLeg 3.627218 -13.744766 -2.751058
RightLeg -3.592372 -0.000000 0.000000
RightFoot -17.715928 -20.629501 11.865495
RightToeBase 5.335071 -0.000000 -0.000000
2360
root -1.649075 31.946720 -5.929830 8.105461 24.391154 5.082437
Spine -6.749596 -8.636666 -5.248260
Head -1.196692 -26.781968 -1.300024
LeftShoulder -9.929903 14.008587 8.894323
LeftArm 24.711725 42.272281 -70.726866
LeftForeArm -2.814717 -0.000000 11.242773
LeftHand -11.279173 -0.000000 -8.138099
LeftHandThumb1 -26.253704 0.000000 33.147579
RightShoulder -8.853605 30.005076 -45.273340
RightArm 96.195688 68.772338 123.960038
RightForeArm 44.817087 -0.000000 100.580151
RightHand 0.542272 -0.000000 12.212768
RightHandThumb1 -24.326973 -0.000000 -32.862282
LeftUpLeg -3.810928 -10.076682 -0.005384
LeftLeg 0.227836 -0.000000 -0.000000
LeftFoot -12.087455 10.226218 -24.035403
LeftToeBase 8.638754 -0.000000 -0.000000
RightUpLeg 3.628815 -13.711946 -2.748117
RightLeg -3.603970 -0.000000 0.000000
RightFoot -17.723446 -20.648155 11.875126
RightToeBase 5.354669 -0.000000 -0.000000
2361
root -1.653074 31.946548 -5.930640 8.103719 24.377294 5.082370
Spine -6.742369 -8.624548 -5.243223
Head -1.173553 -26.752341 -1.322141
LeftShoulder -9.942353 14.008988 8.877043
LeftArm 24.698891 42.294536 -70.748330
LeftForeArm -2.772845 0.000000 11.241683
LeftHand -11.240123 0.000000 -8.213457
LeftHandThumb1 -26.253704 0.000000 33.147579
RightShoulder -8.841670 29.971825 -45.266392
RightArm 96.133580 68.807739 123.843455
RightForeArm 44.620279 0.000000 100.593509
RightHand 0.494958 -0.000000 12.232833
RightHandThumb1 -24.326973 -0.000000 -32.862282
LeftUpLeg -3.813090 -10.097736 0.002279
LeftLeg 0.229750 -0.000000 -0.000000
LeftFoot -12.096058 10.249990 -24.044598
LeftToeBase 8.645747 -0.000000 -0.000000
RightUpLeg 3.628764 -13.701909 -2.743743
RightLeg -3.614031 -0.000000 0.000000
RightFoot -17.716267 -20.639240 11.872197
RightToeBase 5.350210 -0.000000 -0.000000
2362
root -1.656466 31.946223 -5.931388 8.099355 24.361412 5.079957
Spine -6.731696 -8.607146 -5.236473
Head -1.158485 -26.721193 -1.328174
LeftShoulder -9.959787 14.008386 8.870947
LeftArm 24.697636 42.329725 -70.769117
LeftForeArm -2.760220 -0.000000 11.241593
LeftHand -11.231027 0.000000 -8.219595
LeftHandThumb1 -26.253704 0.000000 33.147579
RightShoulder -8.831430 29.944299 -45.256390
RightArm 96.011214 68.847557 123.651528
RightForeArm 44.578851 -0.000000 100.614834
RightHand 0.497336 -0.000000 12.372419
RightHandThumb1 -24.326973 -0.000000 -32.862282
LeftUpLeg -3.812974 -10.096394 0.007695
LeftLeg 0.233640 -0.000000 -0.000000
LeftFoot -12.119127 10.246880 -24.077215
LeftToeBase 8.701787 -0.000000 -0.000000
RightUpLeg 3.628817 -13.667451 -2.737704
RightLeg -3.618744 -0.000000 0.000000
RightFoot -17.722475 -20.652742 11.872830
RightToeBase 5.369629 -0.000000 -0.000000
2363
root -1.660102 31.946107 -5.932429 8.093414 24.352153 5.076679
Spine -6.714500 -8.589968 -5.229206
Head -1.158653 -26.702575 -1.328035
LeftShoulder -9.969396 14.022925 8.858679
LeftArm 24.726654 42.358205 -70.763602
LeftForeArm -2.753771 -0.000000 11.232039
LeftHand -11.340122 0.000000 -8.510924
LeftHandThumb1 -26.253704 0.000000 33.147579
RightShoulder -8.830591 29.860392 -45.259940
RightArm 95.982577 68.871688 123.558531
RightForeArm 44.515895 -0.000000 100.646309
RightHand 0.445709 -0.000000 12.261926
RightHandThumb1 -24.326973 -0.000000 -32.862282
LeftUpLeg -3.814951 -10.108288 0.016866
LeftLeg 0.239517 -0.000000 -0.000000
LeftFoot -12.122312 10.275880 -24.078417
LeftToeBase 8.708079 -0.000000 -0.000000
RightUpLeg 3.629949 -13.673681 -2.730100
RightLeg -3.627638 -0.000000 0.000000
RightFoot -17.708775 -20.650149 11.851133
RightToeBase 5.360491 -0.000000 -0.000000
2364
root -1.664372 31.945919 -5.933360 8.091452 24.348981 5.075380
Spine -6.699385 -8.583752 -5.225144
Head -1.163796 -26.686000 -1.321583
LeftShoulder -9.985539 14.005927 8.861913
LeftArm 24.704297 42.387746 -70.796100
LeftForeArm -2.728114 0.000000 11.239756
LeftHand -11.361742 -0.000000 -8.555126
LeftHandThumb1 -26.253704 0.000000 33.147579
RightShoulder -8.830581 29.799020 -45.263078
RightArm 95.865821 68.913159 123.371062
RightForeArm 44.477126 -0.000000 100.669278
RightHand 0.454006 -0.000000 12.255538
RightHandThumb1 -24.326973 -0.000000 -32.862282
LeftUpLeg -3.824791 -10.104608 0.022904
LeftLeg 0.253312 -0.000000 -0.000000
LeftFoot -12.130295 10.280063 -24.081278
LeftToeBase 8.669918 -0.000000 -0.000000
RightUpLeg 3.626253 -13.646147 -2.721972
RightLeg -3.623434 -0.000000 0.000000
RightFoot -17.717546 -20.663474 11.860274
RightToeBase 5.339228 -0.000000 -0.000000
2365
root -1.668290 31.945620 -5.934677 8.088417 24.343456 5.073308
Spine -6.683155 -8.567425 -5.221064
Head -1.169066 -26.676400 -1.308763
LeftShoulder -9.990508 14.014420 8.866397
LeftArm 24.727041 42.422356 -70.799523
LeftForeArm -2.743309 -0.000000 11.237792
LeftHand -11.365816 -0.000000 -8.500546
LeftHandThumb1 -26.253704 0.000000 33.147579
RightShoulder -8.844304 29.735010 -45.283004
RightArm 95.679827 68.962938 123.116970
RightForeArm 44.491897 -0.000000 100.705216
RightHand 0.466195 -0.000000 12.197527
RightHandThumb1 -24.326973 -0.000000 -32.862282
LeftUpLeg -3.833938 -10.098656 0.030267
LeftLeg 0.268491 -0.000000 -0.000000
LeftFoot -12.136067 10.276082 -24.092130
LeftToeBase 8.651562 -0.000000 -0.000000
RightUpLeg 3.621013 -13.644122 -2.714189
RightLeg -3.622403 -0.000000 0.000000
RightFoot -17.713557 -20.667803 11.839880
RightToeBase 5.349380 -0.000000 -0.000000
